HIERARCHY
ROOT Hips
{
	OFFSET 0.000000 0.000000 0.000000 
	CHANNELS 6 Xposition Yposition Zposition Zrotation Yrotation Xrotation
	JOINT LeftUpLeg
	{
		OFFSET 1.363060 -1.794630 0.839290 
		CHANNELS 3 Zrotation Yrotation Xrotation
		JOINT LeftLeg
		{
			OFFSET 2.448110 -6.726130 0.000000 
			CHANNELS 3 Zrotation Yrotation Xrotation
			JOINT LeftFoot
			{
				OFFSET 2.562200 -7.039590 0.000000 
				CHANNELS 3 Zrotation Yrotation Xrotation
				JOINT LeftToeBase
				{
					OFFSET 0.157640 -0.433110 2.322550 
					CHANNELS 3 Zrotation Yrotation Xrotation
					End Site
					{
						OFFSET 0.000000 0.000000 0.000000 
					}
				}
			}
		}
	}
	JOINT RightUpLeg
	{
		OFFSET -1.305520 -1.794630 0.839290 
		CHANNELS 3 Zrotation Yrotation Xrotation
		JOINT RightLeg
		{
			OFFSET -2.542530 -6.985550 0.000000 
			CHANNELS 3 Zrotation Yrotation Xrotation
			JOINT RightFoot
			{
				OFFSET -2.568260 -7.056230 0.000000 
				CHANNELS 3 Zrotation Yrotation Xrotation
				JOINT RightToeBase
				{
					OFFSET -0.164730 -0.452590 2.363150 
					CHANNELS 3 Zrotation Yrotation Xrotation
					End Site
					{
						OFFSET 0.000000 0.000000 0.000000 
					}
				}
			}
		}
	}
	JOINT Spine
	{
		OFFSET 0.028270 2.035590 -0.193380 
		CHANNELS 3 Zrotation Yrotation Xrotation
		JOINT Spine1
		{
			OFFSET 0.056720 2.048850 -0.042750 
			CHANNELS 3 Zrotation Yrotation Xrotation
			JOINT Neck1
			{
				OFFSET -0.054170 1.746240 0.172020 
				CHANNELS 3 Zrotation Yrotation Xrotation
				JOINT Head
				{
					OFFSET 0.104070 1.761360 -0.123970 
					CHANNELS 3 Zrotation Yrotation Xrotation
					End Site
					{
						OFFSET 0.000000 0.000000 0.000000 
					}
				}
			}
			JOINT LeftArm
			{
				OFFSET 3.362410 1.200890 -0.311210 
				CHANNELS 3 Zrotation Yrotation Xrotation
				JOINT LeftForeArm
				{
					OFFSET 4.983000 -0.000000 -0.000000 
					CHANNELS 3 Zrotation Yrotation Xrotation
					JOINT LeftHand
					{
						OFFSET 3.483560 -0.000000 -0.000000 
						CHANNELS 3 Zrotation Yrotation Xrotation
						JOINT LeftHandIndex1
						{
							OFFSET 0.715260 -0.000000 -0.000000 
							CHANNELS 3 Zrotation Yrotation Xrotation
							End Site
							{
								OFFSET 0.000000 0.000000 0.000000 
							}
						}
					}
				}
			}
			JOINT RightArm
			{
				OFFSET -3.136600 1.374050 -0.404650 
				CHANNELS 3 Zrotation Yrotation Xrotation
				JOINT RightForeArm
				{
					OFFSET -5.241900 -0.000000 -0.000000 
					CHANNELS 3 Zrotation Yrotation Xrotation
					JOINT RightHand
					{
						OFFSET -3.444170 -0.000000 -0.000000 
						CHANNELS 3 Zrotation Yrotation Xrotation
						JOINT RightHandIndex1
						{
							OFFSET -0.622530 -0.000000 -0.000000 
							CHANNELS 3 Zrotation Yrotation Xrotation
							End Site
							{
								OFFSET 0.000000 0.000000 0.000000 
							}
						}
					}
				}
			}
		}
	}
}
MOTION
Frames: 12
Frame Time: 0.041667
-5.473974 17.825701 5.163669 -97.377977 -82.000716 105.882454 -0.732938 -15.218280 -24.160875 -0.022903 6.106491 15.638193 -0.787613 6.980752 7.023606 0.416600 -4.142800 -11.478600 31.985682 1.452220 -1.554750 -2.194001 -10.628009 29.721294 -0.652526 2.127074 6.068621 -0.215600 -2.989100 8.248500 -0.056811 5.828954 -5.111531 2.853479 2.522316 -0.387072 11.206402 -4.999032 8.271045 4.590800 -1.852900 7.667500 -84.296264 8.334373 0.153917 14.648765 -31.529488 -4.273998 0.752150 2.413469 24.706440 -7.125000 0.000000 0.000000 87.975880 -0.536054 -4.445898 -4.457099 11.661920 -0.151156 -0.369146 0.748624 42.622814 7.125000 0.000000 0.000000 
-5.654551 17.821496 5.175982 -101.663599 -82.065363 110.082464 -1.068245 -15.293031 -23.816355 -0.022024 6.152803 15.743043 -0.771849 6.940786 7.117635 0.380900 -3.963600 -10.974300 31.441328 1.470908 -1.928712 -2.456258 -11.061710 31.154381 -0.661537 1.941158 7.212706 -0.218900 -3.012000 8.312100 -0.034294 5.668324 -5.091122 2.933576 2.449948 -0.362760 11.069909 -4.658622 8.430769 4.535400 -1.690200 7.682700 -83.874563 7.975118 -0.461712 14.533158 -31.342894 -4.247334 0.787077 2.406032 24.958683 -7.125000 0.000000 0.000000 88.143156 -1.669320 -8.688614 -4.168545 11.062856 -0.094722 -0.337216 0.771042 45.601981 7.125000 0.000000 0.000000 
-5.834928 17.818594 5.188093 -105.987791 -82.103633 114.312727 -1.443260 -15.333705 -23.459428 -0.016337 6.218570 15.902011 -0.748966 6.863784 7.197129 0.345300 -3.775900 -10.446900 30.877611 1.503701 -2.357802 -2.740444 -11.502547 32.635274 -0.666529 1.654184 8.371902 -0.223300 -3.041800 8.395100 -0.012089 5.504984 -5.069273 3.013279 2.376714 -0.338482 10.931562 -4.319180 8.590227 4.478900 -1.528400 7.697900 -83.468051 7.606649 -1.113214 14.402109 -31.137829 -4.215156 0.823766 2.397880 25.236637 -7.125000 0.000000 0.000000 88.240855 -2.807779 -12.804830 -3.940817 10.577067 -0.053286 -0.305671 0.790775 48.438955 7.125000 0.000000 0.000000 
-6.014905 17.816992 5.200005 -110.325804 -82.115845 118.549089 -1.855803 -15.340160 -23.089563 -0.006417 6.300879 16.107426 -0.719488 6.750566 7.258153 0.310200 -3.580500 -9.899400 30.296319 1.551793 -2.841847 -3.047022 -11.948023 34.158605 -0.667980 1.269503 9.530337 -0.228600 -3.077300 8.493900 0.009581 5.338779 -5.046263 3.091797 2.302561 -0.315406 10.791645 -3.980375 8.749690 4.421400 -1.367300 7.713700 -83.075863 7.232178 -1.788036 14.260182 -30.919235 -4.178642 0.861852 2.388674 25.531624 -7.125000 0.000000 0.000000 88.273121 -3.952376 -16.664980 -3.768917 10.200059 -0.024191 -0.276561 0.807625 51.013892 7.125000 0.000000 0.000000 
-6.194381 17.816592 5.211817 -114.643641 -82.103199 122.758346 -2.303978 -15.312990 -22.706449 0.007193 6.396682 16.351370 -0.684114 6.603566 7.299715 0.276200 -3.380400 -9.339700 29.699321 1.614448 -3.381452 -3.375891 -12.395378 35.717928 -0.666373 0.795048 10.672224 -0.233600 -3.111000 8.588000 0.030494 5.169189 -5.022856 3.167674 2.226805 -0.296019 10.649963 -3.642598 8.909456 4.362800 -1.207300 7.730200 -82.696994 6.852303 -2.478732 14.108803 -30.688765 -4.138382 0.901100 2.378415 25.842857 -7.125000 0.000000 0.000000 88.245117 -5.103484 -20.163328 -3.645398 9.922718 -0.005048 -0.251509 0.821722 53.229483 7.125000 0.000000 0.000000 
-6.373257 17.817492 5.223328 -118.923161 -82.066318 126.924386 -2.785113 -15.253971 -22.309118 0.023977 6.502882 16.625597 -0.643949 6.426910 7.319586 0.243700 -3.176800 -8.771400 29.088330 1.692455 -3.975126 -3.726145 -12.841468 37.305200 -0.661908 0.240837 11.783593 -0.238400 -3.142100 8.674700 0.050710 4.996932 -4.998779 3.242020 2.149677 -0.278621 10.505408 -3.306321 9.068440 4.302500 -1.048500 7.747000 -82.333221 6.466966 -3.175403 13.951245 -30.450817 -4.095460 0.941042 2.367665 26.166949 -7.125000 0.000000 0.000000 88.161112 -6.257818 -23.215706 -3.563033 9.734361 0.006128 -0.232071 0.833403 55.006311 7.125000 0.000000 0.000000 
-6.551232 17.819595 5.234639 -123.125334 -82.006793 131.008091 -3.295591 -15.166065 -21.896865 0.043265 6.616358 16.921327 -0.599951 6.224492 7.316941 0.212800 -2.970000 -8.195200 28.465732 1.783883 -4.624294 -4.096809 -13.283346 38.913062 -0.654421 -0.381745 12.851048 -0.242900 -3.171500 8.756500 0.070462 4.820845 -4.974245 3.314956 2.070542 -0.264159 10.358797 -2.971202 9.226463 4.241400 -0.890700 7.764300 -81.985828 6.074372 -3.874581 13.787697 -30.205866 -4.050037 0.981833 2.355918 26.504742 -7.125000 0.000000 0.000000 88.024945 -7.408602 -25.791285 -3.512826 9.619791 0.011406 -0.218796 0.843083 56.320645 7.125000 0.000000 0.000000 
-6.728306 17.822898 5.245650 -127.215105 -81.927614 134.973403 -3.831774 -15.053074 -21.467504 0.064575 6.733772 17.230525 -0.553390 6.001077 7.291357 0.183900 -2.762100 -7.617200 27.834782 1.886971 -5.325563 -4.485561 -13.717821 40.531393 -0.643433 -1.060928 13.860327 -0.246800 -3.197000 8.827800 0.090079 4.639969 -4.949439 3.387190 1.988472 -0.253622 10.208674 -2.637498 9.383191 4.178500 -0.734200 7.782200 -81.655040 5.674976 -4.567646 13.620194 -29.956333 -4.002725 1.023140 2.343239 26.852125 -7.125000 0.000000 0.000000 87.842008 -8.552915 -27.868392 -3.489248 9.569617 0.011988 -0.212191 0.851134 57.153587 7.125000 0.000000 0.000000 
-6.904178 17.827402 5.256360 -131.179479 -81.827744 138.811174 -4.387172 -14.914993 -21.022971 0.087303 6.852598 17.545805 -0.505602 5.763755 7.242440 0.156900 -2.552600 -7.035600 27.199463 2.004209 -6.080130 -4.890707 -14.142600 42.153888 -0.628409 -1.781972 14.799135 -0.250100 -3.218200 8.886800 0.109560 4.455702 -4.924704 3.458447 1.904228 -0.246758 10.056245 -2.305494 9.537986 4.114500 -0.579100 7.800400 -81.340443 5.268277 -5.245138 13.450782 -29.704965 -3.954213 1.064606 2.329523 27.205409 -7.125000 0.000000 0.000000 87.617178 -9.684396 -29.456486 -3.487167 9.573838 0.009064 -0.212234 0.857858 57.517026 7.125000 0.000000 0.000000 
-7.078850 17.833008 5.266671 -134.988395 -81.710865 142.490423 -4.958810 -14.757033 -20.559559 0.110468 6.968805 17.856594 -0.457949 5.518729 7.171640 0.132400 -2.345300 -6.460800 26.561984 2.131986 -6.885035 -5.308941 -14.554484 43.769622 -0.608799 -2.528926 15.653280 -0.251900 -3.229500 8.918400 0.128908 4.267354 -4.900166 3.528346 1.817139 -0.243892 9.900682 -1.975860 9.689750 4.048900 -0.425800 7.818300 -81.041391 4.856228 -5.894131 13.282517 -29.456367 -3.905567 1.105793 2.315011 27.556630 -7.125000 0.000000 0.000000 87.355529 -10.797216 -30.590272 -3.502252 9.623621 0.003431 -0.218596 0.863458 57.446460 7.125000 0.000000 0.000000 
-7.252320 17.839614 5.276680 -138.622769 -81.580122 145.994261 -5.543586 -14.583816 -20.073996 0.133164 7.079197 18.153912 -0.411621 5.271674 7.077411 0.110500 -2.143800 -5.903200 25.924387 2.268022 -7.736709 -5.736457 -14.950790 45.368027 -0.583470 -3.291212 16.415204 -0.252500 -3.233100 8.928400 0.148739 4.073897 -4.875341 3.598491 1.726673 -0.243482 9.741795 -1.648044 9.839353 3.982000 -0.273900 7.837400 -80.759750 4.436924 -6.507180 13.117478 -29.213675 -3.857487 1.146367 2.300288 27.899686 -7.125000 0.000000 0.000000 87.059746 -11.882198 -31.313598 -3.531270 9.711285 -0.004311 -0.230605 0.867989 56.988787 7.125000 0.000000 0.000000 
-7.424389 17.847222 5.286190 -142.066767 -81.437699 149.306662 -6.136304 -14.396862 -19.567811 0.154730 7.181481 18.431278 -0.367127 5.025932 6.960044 0.091500 -1.950600 -5.369100 25.290551 2.411812 -8.633462 -6.169283 -15.329213 46.938802 -0.551494 -4.057352 17.077636 -0.251700 -3.228000 8.914100 0.168768 3.876345 -4.851041 3.667587 1.633222 -0.247133 9.580770 -1.323388 9.985268 3.914100 -0.124000 7.856200 -80.493490 4.012419 -7.072618 12.957018 -28.979198 -3.810548 1.185941 2.285145 28.229105 -7.125000 0.000000 0.000000 86.735909 -12.936200 -31.678482 -3.572054 9.831001 -0.013736 -0.247566 0.871462 56.195332 7.125000 0.000000 0.000000 
